<?xml version="1.0" standalone="no"?>
<!DOCTYPE svg PUBLIC "-//W3C//DTD SVG 20010904//EN"
 "http://www.w3.org/TR/2001/REC-SVG-20010904/DTD/svg10.dtd">
<svg version="1.0" xmlns="http://www.w3.org/2000/svg"
 width="700.000000pt" height="700.000000pt" viewBox="0 0 700.000000 700.000000"
 preserveAspectRatio="xMidYMid meet">
<metadata>
Created by potrace 1.11, written by Peter Selinger 2001-2013
</metadata>
<g transform="translate(0.000000,700.000000) scale(0.100000,-0.100000)"
fill="#000000" stroke="none">
<path d="M3278 6995 c-2 -1 -41 -5 -88 -9 -87 -7 -105 -9 -225 -27 -116 -18
-123 -19 -192 -35 -184 -42 -248 -59 -369 -99 -264 -88 -538 -216 -759 -356
-346 -217 -655 -497 -910 -824 -238 -304 -432 -668 -559 -1047 -31 -94 -79
-267 -91 -329 -3 -13 -11 -58 -20 -99 -29 -147 -36 -200 -52 -370 -15 -165 -8
-592 12 -711 2 -13 6 -46 9 -74 9 -78 23 -156 51 -285 23 -107 88 -333 114
-395 5 -11 30 -75 55 -142 54 -140 181 -394 249 -501 26 -40 47 -76 47 -81 0
-5 3 -11 8 -13 4 -2 33 -41 64 -88 169 -254 433 -535 708 -755 92 -74 370
-265 386 -265 4 0 15 -6 23 -14 27 -23 260 -140 392 -196 281 -120 597 -208
874 -245 22 -2 56 -7 75 -10 186 -26 698 -27 838 0 16 3 104 15 147 20 248 32
676 167 953 302 103 50 278 145 306 166 6 4 61 40 121 80 253 168 492 376 678
592 33 39 63 72 67 75 17 13 181 236 245 335 219 336 406 779 481 1140 16 79
54 301 59 350 4 33 9 71 11 85 9 47 11 525 4 605 -13 130 -21 202 -25 227 -3
13 -8 43 -11 68 -9 67 -70 335 -94 412 -11 37 -21 70 -21 73 0 2 -16 49 -35
102 -222 615 -578 1125 -1074 1541 -68 57 -307 232 -351 257 -10 5 -49 29 -86
51 -85 52 -297 162 -383 199 -36 15 -83 35 -105 45 -116 51 -399 137 -563 171
-54 11 -106 22 -117 25 -11 2 -38 6 -60 9 -22 3 -51 7 -65 10 -13 2 -52 7 -86
11 -33 3 -74 8 -90 10 -32 5 -540 14 -546 9z"/>
</g>
</svg>
