<?xml version="1.0" encoding="UTF-8"?>
<svg width="32px" height="22px" viewBox="0 0 32 22" version="1.1" xmlns="http://www.w3.org/2000/svg" xmlns:xlink="http://www.w3.org/1999/xlink">
    <!-- Generator: Sketch 43.1 (39012) - http://www.bohemiancoding.com/sketch -->
    <title>behance</title>
    <desc>Created with Sketch.</desc>
    <defs></defs>
    <g id="Home" stroke="none" stroke-width="1" fill="none" fill-rule="evenodd">
        <g transform="translate(-808.000000, -6213.000000)" id="Group-4" fill="#526173">
            <g transform="translate(549.000000, 6212.000000)">
                <path d="M279.89065,3.2968527 L279.89065,5.23435501 L287.875034,5.23435501 L287.875034,3.2968527 L279.89065,3.2968527 Z M283.93753,9.95311064 C282.062527,9.95311064 280.812526,11.124987 280.687526,12.9999893 L287.062533,12.9999893 C286.890658,11.109362 285.906282,9.95311064 283.93753,9.95311064 Z M284.18753,19.0937465 C285.375031,19.0937465 286.906283,18.4531208 287.281284,17.2343693 L290.734413,17.2343693 C289.671912,20.4999982 287.468784,22.03125 284.06253,22.03125 C279.562525,22.03125 276.765646,18.9843714 276.765646,14.5468661 C276.765646,10.265611 279.718775,6.99998212 284.06253,6.99998212 C288.531285,6.99998212 291.000038,10.5156113 291.000038,14.7343663 C291.000038,14.9843666 290.984413,15.2343669 290.968788,15.4687422 L280.687526,15.4687422 C280.687526,17.7499949 281.890652,19.0937465 284.18753,19.0937465 Z M263.32813,18.3124956 L267.953136,18.3124956 C269.718763,18.3124956 271.156264,17.6874949 271.156264,15.7031175 C271.156264,13.6874901 269.953138,12.8906141 268.046886,12.8906141 L263.32813,12.8906141 L263.32813,18.3124956 Z M263.32813,9.9218606 L267.71876,9.9218606 C269.265637,9.9218606 270.359389,9.2499848 270.359389,7.57810781 C270.359389,5.76560565 268.953137,5.32810513 267.390635,5.32810513 L263.32813,5.32810513 L263.32813,9.9218606 Z M259,1.96872612 L268.281261,1.96872612 C271.656265,1.96872612 274.578144,2.92185226 274.578144,6.84373193 C274.578144,8.8281093 273.656267,10.1093608 271.89064,10.9531118 C274.312518,11.6406127 275.484395,13.4687398 275.484395,15.9374928 C275.484395,19.9374975 272.125016,21.6562496 268.546886,21.6562496 L259,21.6562496 L259,1.96872612 Z" id="behance"></path>
            </g>
        </g>
    </g>
</svg>