<?xml version="1.0" encoding="UTF-8"?>
<svg width="40px" height="40px" viewBox="0 0 40 40" version="1.1" xmlns="http://www.w3.org/2000/svg" xmlns:xlink="http://www.w3.org/1999/xlink">
    <!-- Generator: Sketch 46 (44423) - http://www.bohemiancoding.com/sketch -->
    <title>favicon</title>
    <desc>Created with Sketch.</desc>
    <defs>
        <linearGradient x1="17.2026755%" y1="89.0999448%" x2="84.0594764%" y2="23.2040858%" id="linearGradient-1">
            <stop stop-color="#8FBBE4" offset="0%"></stop>
            <stop stop-color="#99A3E8" offset="100%"></stop>
        </linearGradient>
    </defs>
    <g id="Page-1" stroke="none" stroke-width="1" fill="none" fill-rule="evenodd">
        <g id="favicon" fill-rule="nonzero">
            <path d="M20,0 C8.954,0 0,8.954 0,20 C0,31.046 8.954,40 20,40 C31.046,40 40,31.046 40,20 C40,8.954 31.046,0 20,0 Z" id="Shape" fill="url(#linearGradient-1)"></path>
            <path d="M29.95,24.467 C29.541,25.285 28.977,25.997 28.532,26.46 C28.067,26.944 27.507,27.505 26.912,27.878 C26.318,28.242 25.757,28.47 25.12,28.667 C24.483,28.865 23.814,28.964 23.112,28.964 C22.411,28.964 21.821,28.458 21.344,27.445 C20.865,26.431 20.627,24.95 20.627,23 C20.627,22.236 20.677,21.41 20.779,20.525 C20.882,19.64 21.008,18.687 21.161,17.667 L20.855,17.667 L15.847,27.607 C15.592,28.13 15.305,28.487 14.987,28.678 C14.67,28.87 14.3,28.965 13.878,28.965 C13.355,28.965 12.935,28.853 12.616,28.631 C12.297,28.408 12.051,28.109 11.879,27.732 C11.707,27.357 11.592,26.929 11.535,26.452 C11.477,25.973 11.449,25.481 11.449,24.97 C11.449,24.129 11.499,23.157 11.601,22.055 C11.704,20.953 11.83,19.832 11.983,18.692 C12.136,17.552 12.308,16.452 12.5,15.395 C12.691,14.337 12.876,13.432 13.054,12.68 C13.193,12.095 13.465,11.603 13.867,11.208 C14.268,10.812 14.812,10.615 15.502,10.615 C16.189,10.615 16.668,10.826 16.935,11.246 C17.203,11.667 17.337,12.228 17.337,12.928 C17.337,13.119 17.317,13.378 17.279,13.702 C17.24,14.027 17.193,14.384 17.136,14.773 C17.079,15.162 17.018,15.563 16.955,15.978 C16.891,16.392 16.83,16.774 16.773,17.124 C16.716,17.475 16.668,17.781 16.63,18.042 C16.592,18.303 16.572,18.479 16.572,18.568 L16.955,18.568 C17.03,18.428 17.152,18.201 17.318,17.889 C17.484,17.577 17.675,17.217 17.892,16.81 C18.109,16.402 18.342,15.972 18.59,15.519 C18.838,15.066 19.071,14.634 19.288,14.22 C19.505,13.806 19.701,13.439 19.88,13.12 C20.058,12.802 20.192,12.566 20.281,12.413 C20.689,11.725 21.154,11.254 21.677,10.999 C22.199,10.744 22.779,10.616 23.416,10.616 C24.054,10.616 24.56,10.884 24.936,11.419 C25.312,11.954 25.5,12.694 25.5,13.636 C25.5,13.776 25.472,14.013 25.414,14.343 C25.357,14.675 25.283,15.07 25.194,15.529 C25.105,15.988 25.005,16.491 24.897,17.039 C24.788,17.587 24.69,18.149 24.6,18.721 C24.511,19.295 24.438,19.862 24.38,20.423 C24.322,20.985 24.294,21.5 24.294,21.972 C24.294,22.762 24.392,23.413 24.591,23.922 C24.788,24.431 25.097,24.686 25.518,24.686 C25.709,24.686 25.929,24.629 26.178,24.514 C26.426,24.399 26.694,24.25 26.981,24.065 C27.268,23.881 27.561,23.667 27.86,23.425 C28.16,23.184 28.455,22.935 28.749,22.679 C29.424,22.081 30.132,21.405 30.871,20.654 C30.874,20.649 31.061,22.358 29.95,24.467 Z" id="Shape" fill="#FFFFFF"></path>
        </g>
    </g>
</svg>