<?xml version="1.0" encoding="UTF-8"?>
<svg width="70px" height="70px" viewBox="0 0 70 70" version="1.1" xmlns="http://www.w3.org/2000/svg" xmlns:xlink="http://www.w3.org/1999/xlink">
    <!-- Generator: Sketch 49 (51002) - http://www.bohemiancoding.com/sketch -->
    <title>Group 7</title>
    <desc>Created with Sketch.</desc>
    <defs>
        <linearGradient x1="17.2026755%" y1="89.0999448%" x2="84.0594764%" y2="23.2040858%" id="linearGradient-1">
            <stop stop-color="#74AEE3" offset="0%"></stop>
            <stop stop-color="#7282EB" offset="100%"></stop>
        </linearGradient>
    </defs>
    <g id="Home" stroke="none" stroke-width="1" fill="none" fill-rule="evenodd">
        <g id="Group-7" fill-rule="nonzero">
            <g id="icon-copy-2">
                <path d="M35,0 C15.6695,0 0,15.6695 0,35 C0,54.3305 15.6695,70 35,70 C54.3305,70 70,54.3305 70,35 C70,15.6695 54.3305,0 35,0 Z" id="Shape" fill="url(#linearGradient-1)"></path>
                <path d="M50.9010806,43.0286376 C50.2013729,44.4328338 49.2364948,45.6550681 48.4751991,46.4498638 C47.679688,47.2807084 46.721653,48.243733 45.7037408,48.8840327 C44.6875394,49.5088828 43.7277937,49.9002725 42.6380289,50.2384469 C41.5482641,50.5783379 40.4037545,50.7482834 39.2027892,50.7482834 C38.0035347,50.7482834 36.9941764,49.879673 36.1781359,48.1407357 C35.3586738,46.4000817 34.951509,43.8577657 34.951509,40.5103542 C34.951509,39.1988556 35.0370478,37.7809264 35.211547,36.2617166 C35.387757,34.7425068 35.6033149,33.1065668 35.8650638,31.3556131 L35.3415661,31.3556131 L26.7739961,48.4188283 C26.3377481,49.3166213 25.8467551,49.929455 25.3027281,50.2573297 C24.7604119,50.586921 24.1274245,50.75 23.4054767,50.75 C22.5107405,50.75 21.7922142,50.5577384 21.2464765,50.1766485 C20.7007387,49.793842 20.2798876,49.2805722 19.985634,48.633406 C19.6913804,47.989673 19.4946411,47.2549591 19.3971268,46.4361308 C19.2979017,45.6138692 19.25,44.7692916 19.25,43.8920981 C19.25,42.4484196 19.3355388,40.7798638 19.5100381,38.8881471 C19.6862481,36.9964305 19.9018059,35.0720981 20.1635548,33.1151499 C20.4253036,31.1582016 20.7195572,29.2699183 21.0480264,27.4554496 C21.3747847,25.6392643 21.6912784,24.0857221 21.9957967,22.7948229 C22.2335946,21.7905995 22.6989259,20.9460218 23.3866582,20.2679564 C24.0726796,19.5881744 25.0033422,19.25 26.1837781,19.25 C27.3590818,19.25 28.1785438,19.6122071 28.6353212,20.333188 C29.0938094,21.0558856 29.3230535,22.0189101 29.3230535,23.220545 C29.3230535,23.5484196 29.2888379,23.9930245 29.2238284,24.5492098 C29.1571081,25.1071117 29.0767016,25.7199455 28.9791874,26.3877112 C28.8816731,27.0554768 28.7773157,27.743842 28.6695368,28.4562398 C28.560047,29.166921 28.4556897,29.8226703 28.3581754,30.4234877 C28.2606611,31.0260218 28.1785438,31.5513079 28.1135343,31.999346 C28.0485248,32.4473842 28.0143093,32.7495095 28.0143093,32.9022888 L28.6695368,32.9022888 C28.797845,32.6619619 29.0065598,32.2722888 29.2905487,31.736703 C29.5745377,31.2011172 29.901296,30.5831335 30.2725346,29.8844687 C30.6437731,29.1840872 31.0423841,28.4459401 31.4666567,27.6683106 C31.8909294,26.8906812 32.2895404,26.1491008 32.6607789,25.4384196 C33.0320175,24.7277384 33.3673297,24.0977384 33.6735587,23.5501362 C33.978077,23.0042507 34.2073211,22.5991281 34.3595802,22.336485 C35.0575771,21.1554496 35.8530883,20.346921 36.7478246,19.9091826 C37.64085,19.4714441 38.6331005,19.2517166 39.7228653,19.2517166 C40.8143409,19.2517166 41.6799939,19.7117711 42.323246,20.6301635 C42.966498,21.5485559 43.2881241,22.8188556 43.2881241,24.4359128 C43.2881241,24.6762398 43.2402223,25.083079 43.1409973,25.649564 C43.043483,26.2194823 42.9168855,26.8975477 42.7646264,27.6854768 C42.6123672,28.473406 42.4412896,29.3368665 42.2565257,30.2775749 C42.070051,31.2182834 41.9023949,32.1830245 41.748425,33.1649319 C41.5961659,34.1502725 41.4712791,35.1235967 41.3720541,36.0866213 C41.272829,37.0513624 41.2249273,37.9354223 41.2249273,38.7456676 C41.2249273,40.1017984 41.3925834,41.2193188 41.733028,42.093079 C42.070051,42.9668392 42.598681,43.4045777 43.318918,43.4045777 C43.6456764,43.4045777 44.0220473,43.3067302 44.4480307,43.1093188 C44.8723033,42.9119074 45.3307915,42.6561308 45.8217844,42.3385559 C46.3127773,42.0226975 46.8140349,41.6553406 47.3255572,41.2399183 C47.8387902,40.8262125 48.3434693,40.3987738 48.8464377,39.9593188 C50.001212,38.9327793 51.2124419,37.7723433 52.476706,36.4831608 C52.4818383,36.4745777 52.8017535,39.4082834 50.9010806,43.0286376 Z" id="Shape" fill="#FFFFFF"></path>
            </g>
        </g>
    </g>
</svg>